<svg xmlns="http://www.w3.org/2000/svg" xmlns:xlink="http://www.w3.org/1999/xlink" zoomAndPan="magnify" viewBox="160 308 850 160" preserveAspectRatio="xMidYMid meet" version="1.0"><defs><filter id="grayscale"><feColorMatrix type="saturate" values="0"/></filter></defs><g filter="url(#grayscale)"><path fill="#60a5fa" d="M 285.03125 305.988281 C 284.457031 308.882812 283.390625 314.242188 282.664062 317.902344 C 279.703125 332.855469 276.882812 344.625 275.035156 349.722656 C 273.800781 353.132812 272.351562 355.9375 270.679688 358.160156 C 270.277344 358.695312 269.28125 359.796875 268.460938 360.617188 C 266.335938 362.738281 264.417969 364.109375 261.046875 365.921875 C 257.304688 367.933594 255.203125 368.796875 245.121094 372.449219 C 239.351562 374.539062 238.6875 374.785156 236.074219 375.761719 C 234.667969 376.289062 233.425781 376.746094 233.3125 376.78125 C 232.898438 376.90625 233.230469 377.113281 234.859375 377.742188 C 237.449219 378.742188 237.972656 378.929688 241.195312 380.003906 C 242.855469 380.554688 245.519531 381.472656 247.113281 382.046875 C 248.710938 382.621094 250.425781 383.234375 250.925781 383.40625 C 254.527344 384.652344 260.304688 387.277344 262.832031 388.8125 C 265.863281 390.65625 268.632812 393.179688 270.207031 395.527344 C 271.144531 396.925781 272.335938 399.253906 273.027344 401.039062 C 273.761719 402.9375 274.714844 406.304688 275.054688 408.230469 C 275.097656 408.46875 275.167969 408.683594 275.210938 408.710938 C 275.257812 408.738281 276.363281 408.851562 277.675781 408.960938 C 281.078125 409.25 292.011719 409.25 296.074219 408.960938 C 297.621094 408.851562 298.960938 408.738281 299.046875 408.703125 C 299.132812 408.671875 299.265625 408.328125 299.34375 407.941406 C 300.53125 401.976562 303.023438 396.460938 306.03125 393.121094 C 309.179688 389.625 313.746094 386.75 320.394531 384.066406 C 323.285156 382.902344 327.855469 381.21875 332.34375 379.660156 C 335.261719 378.644531 339.054688 377.199219 339.214844 377.042969 C 339.28125 376.976562 339.21875 376.894531 339.046875 376.828125 C 338.894531 376.769531 338.234375 376.507812 337.578125 376.246094 C 336.921875 375.980469 335.5625 375.472656 334.5625 375.109375 C 333.5625 374.75 331.691406 374.070312 330.410156 373.597656 C 329.125 373.125 327.640625 372.585938 327.109375 372.398438 C 312.207031 367.125 306.542969 364.011719 302.089844 358.652344 C 300.589844 356.84375 299.070312 354.277344 298.148438 351.996094 C 296.546875 348.023438 294.238281 339.664062 292.503906 331.550781 C 292 329.203125 291.785156 328.21875 291.285156 325.976562 C 290.742188 323.535156 287.972656 309.652344 286.820312 303.570312 C 286.394531 301.324219 286.253906 300.726562 286.15625 300.726562 C 286.113281 300.726562 285.609375 303.09375 285.03125 305.988281 M 291.035156 430.964844 C 289.628906 431.015625 286.46875 431.023438 284.011719 430.988281 L 279.542969 430.917969 L 279.542969 431.191406 C 279.546875 431.511719 280.035156 433.964844 280.667969 436.804688 C 280.917969 437.929688 281.308594 439.773438 281.535156 440.898438 C 281.761719 442.027344 282.253906 444.355469 282.628906 446.074219 C 283 447.792969 283.511719 450.148438 283.761719 451.304688 C 284.011719 452.464844 284.289062 453.71875 284.375 454.09375 C 284.464844 454.46875 284.925781 456.644531 285.402344 458.925781 C 285.875 461.210938 286.339844 463.382812 286.429688 463.757812 C 286.574219 464.359375 286.875 465.75 287.171875 467.171875 C 287.296875 467.777344 288.121094 471.382812 288.515625 473.0625 C 288.6875 473.800781 288.878906 474.402344 288.9375 474.402344 C 289.0625 474.402344 289.050781 474.480469 290.171875 467.171875 C 291.066406 461.320312 291.390625 459.238281 291.664062 457.503906 C 291.824219 456.503906 292.109375 454.636719 292.296875 453.351562 C 292.484375 452.070312 292.738281 450.40625 292.859375 449.65625 C 292.976562 448.90625 293.207031 447.421875 293.371094 446.359375 C 293.53125 445.296875 293.785156 443.632812 293.933594 442.664062 C 294.085938 441.691406 294.265625 440.492188 294.335938 439.988281 C 294.40625 439.488281 294.644531 437.980469 294.867188 436.636719 C 295.375 433.523438 295.691406 431.164062 295.621094 430.980469 C 295.558594 430.816406 295.171875 430.816406 291.035156 430.964844 " fill-opacity="1" fill-rule="evenodd"/><path fill="#ff6b35" d="M 241.425781 358.523438 C 234.265625 360.046875 231.078125 360.828125 227.085938 362.027344 C 225.867188 362.394531 224.382812 362.832031 223.789062 362.996094 C 221.773438 363.558594 215.585938 365.902344 212.46875 367.285156 C 205.269531 370.472656 199.65625 373.933594 195.78125 377.570312 C 193.308594 379.890625 192.046875 381.382812 190.792969 383.457031 C 188.871094 386.636719 187.894531 390.617188 188.277344 393.714844 C 188.664062 396.867188 189.976562 400 192.128906 402.894531 C 193.148438 404.269531 196.421875 407.582031 197.96875 408.800781 C 203.1875 412.925781 209.277344 416.285156 217.527344 419.59375 C 219.050781 420.207031 222.332031 421.410156 222.988281 421.597656 C 223.210938 421.660156 224.4375 422.046875 225.722656 422.453125 C 229.539062 423.671875 231.117188 424.105469 236.304688 425.363281 C 239.765625 426.203125 242.078125 426.710938 244.097656 427.070312 C 244.785156 427.195312 246.042969 427.421875 246.886719 427.578125 C 254.703125 429.027344 264.261719 430.089844 274.140625 430.609375 C 278.71875 430.851562 295.800781 430.78125 300.878906 430.5 C 304.535156 430.296875 310.226562 429.785156 313.566406 429.359375 C 320.332031 428.496094 323.265625 428.027344 330.066406 426.722656 C 332.28125 426.300781 339.886719 424.425781 342.753906 423.597656 C 348.777344 421.859375 353.761719 420.078125 359.140625 417.746094 C 361.117188 416.886719 365.792969 414.511719 367.449219 413.519531 C 371.011719 411.390625 374.207031 409.078125 376.152344 407.222656 C 379.605469 403.925781 380.894531 402.269531 382.417969 399.160156 C 384.46875 394.988281 384.621094 390.820312 382.894531 386.308594 C 381.882812 383.664062 380.308594 381.347656 377.832031 378.859375 C 373.25 374.257812 368.425781 371.183594 359.199219 366.996094 C 357.414062 366.1875 351.574219 363.988281 349.527344 363.355469 C 345.882812 362.230469 343.085938 361.398438 341.957031 361.105469 C 340.546875 360.738281 336.28125 359.714844 334.902344 359.410156 C 334.402344 359.296875 333.507812 359.097656 332.910156 358.964844 C 330.789062 358.488281 329.691406 358.332031 329.960938 358.539062 C 329.988281 358.558594 331.238281 358.894531 332.742188 359.289062 C 335.632812 360.039062 344.097656 362.804688 346.113281 363.652344 C 350.78125 365.621094 353.019531 366.679688 355.554688 368.121094 C 358.964844 370.050781 360.726562 371.269531 363.472656 373.582031 C 366.261719 375.929688 368.296875 378.703125 369.539062 381.84375 C 370.214844 383.554688 370.460938 385.523438 370.242188 387.527344 C 370.09375 388.9375 369.929688 389.539062 369.296875 391.011719 C 368.222656 393.511719 366.980469 395.320312 364.953125 397.34375 C 362.230469 400.054688 360.195312 401.585938 356.296875 403.847656 C 351.28125 406.761719 343.199219 410.003906 335.699219 412.109375 C 331.410156 413.3125 324.195312 414.960938 320.738281 415.527344 C 320.140625 415.621094 318.863281 415.832031 317.890625 415.992188 C 310.039062 417.289062 302.394531 418.007812 293.140625 418.324219 C 281.511719 418.726562 267.453125 417.96875 257.011719 416.382812 C 252.347656 415.675781 248.417969 414.984375 246.375 414.515625 C 245.6875 414.355469 244.660156 414.121094 244.097656 413.996094 C 237.246094 412.445312 231.011719 410.546875 224.957031 408.15625 C 220.46875 406.382812 215.695312 403.851562 212.117188 401.351562 C 207.953125 398.4375 205.101562 395.414062 203.492188 392.207031 C 202.898438 391.015625 202.203125 388.839844 202.046875 387.671875 C 201.875 386.402344 201.980469 384.472656 202.28125 383.300781 C 202.847656 381.078125 204.464844 378.148438 206.183594 376.21875 C 210.101562 371.820312 215.796875 368.113281 224.128906 364.53125 C 227.570312 363.050781 228.609375 362.664062 232.605469 361.367188 C 236.667969 360.050781 238.191406 359.601562 240.570312 359.007812 C 242.203125 358.601562 242.820312 358.375 242.214844 358.402344 C 242.0625 358.40625 241.707031 358.460938 241.425781 358.523438 " fill-opacity="1" fill-rule="evenodd"/><path fill="#273444" d="M 15.3125 0 C 13.351562 0 11.726562 -0.660156 10.4375 -1.984375 C 9.15625 -3.304688 8.515625 -4.953125 8.515625 -6.921875 L 8.515625 -77.046875 C 8.515625 -79.015625 9.15625 -80.660156 10.4375 -81.984375 C 11.726562 -83.304688 13.351562 -83.96875 15.3125 -83.96875 C 17.28125 -83.96875 18.90625 -83.304688 20.1875 -81.984375 C 21.476562 -80.660156 22.125 -79.015625 22.125 -77.046875 L 22.125 -6.921875 C 22.125 -4.953125 21.476562 -3.304688 20.1875 -1.984375 C 18.90625 -0.660156 17.28125 0 15.3125 0 Z M 51.40625 -60.703125 C 53.144531 -60.703125 54.65625 -59.984375 55.9375 -58.546875 C 57.226562 -57.109375 57.875 -55.707031 57.875 -54.34375 C 57.875 -52.53125 56.960938 -50.832031 55.140625 -49.25 L 20.984375 -17.8125 L 20.421875 -33.46875 L 46.40625 -58.546875 C 47.84375 -59.984375 49.507812 -60.703125 51.40625 -60.703125 Z M 53.109375 -0.109375 C 51.140625 -0.109375 49.472656 -0.867188 48.109375 -2.390625 L 27.125 -24.625 L 37.4375 -34.15625 L 57.875 -11.921875 C 59.3125 -10.398438 60.03125 -8.695312 60.03125 -6.8125 C 60.03125 -4.84375 59.253906 -3.234375 57.703125 -1.984375 C 56.148438 -0.734375 54.617188 -0.109375 53.109375 -0.109375 Z M 53.109375 -0.109375 "/></g></g></svg>
