<svg xmlns="http://www.w3.org/2000/svg" xmlns:xlink="http://www.w3.org/1999/xlink" zoomAndPan="magnify" viewBox="160 308 850 160" preserveAspectRatio="xMidYMid meet" version="1.0"><defs><g/></defs><path fill="#60a5fa" d="M 285.03125 305.988281 C 284.457031 308.882812 283.390625 314.242188 282.664062 317.902344 C 279.703125 332.855469 276.882812 344.625 275.035156 349.722656 C 273.800781 353.132812 272.351562 355.9375 270.679688 358.160156 C 270.277344 358.695312 269.28125 359.796875 268.460938 360.617188 C 266.335938 362.738281 264.417969 364.109375 261.046875 365.921875 C 257.304688 367.933594 255.203125 368.796875 245.121094 372.449219 C 239.351562 374.539062 238.6875 374.785156 236.074219 375.761719 C 234.667969 376.289062 233.425781 376.746094 233.3125 376.78125 C 232.898438 376.90625 233.230469 377.113281 234.859375 377.742188 C 237.449219 378.742188 237.972656 378.929688 241.195312 380.003906 C 242.855469 380.554688 245.519531 381.472656 247.113281 382.046875 C 248.710938 382.621094 250.425781 383.234375 250.925781 383.40625 C 254.527344 384.652344 260.304688 387.277344 262.832031 388.8125 C 265.863281 390.65625 268.632812 393.179688 270.207031 395.527344 C 271.144531 396.925781 272.335938 399.253906 273.027344 401.039062 C 273.761719 402.9375 274.714844 406.304688 275.054688 408.230469 C 275.097656 408.46875 275.167969 408.683594 275.210938 408.710938 C 275.257812 408.738281 276.363281 408.851562 277.675781 408.960938 C 281.078125 409.25 292.011719 409.25 296.074219 408.960938 C 297.621094 408.851562 298.960938 408.738281 299.046875 408.703125 C 299.132812 408.671875 299.265625 408.328125 299.34375 407.941406 C 300.53125 401.976562 303.023438 396.460938 306.03125 393.121094 C 309.179688 389.625 313.746094 386.75 320.394531 384.066406 C 323.285156 382.902344 327.855469 381.21875 332.34375 379.660156 C 335.261719 378.644531 339.054688 377.199219 339.214844 377.042969 C 339.28125 376.976562 339.21875 376.894531 339.046875 376.828125 C 338.894531 376.769531 338.234375 376.507812 337.578125 376.246094 C 336.921875 375.980469 335.5625 375.472656 334.5625 375.109375 C 333.5625 374.75 331.691406 374.070312 330.410156 373.597656 C 329.125 373.125 327.640625 372.585938 327.109375 372.398438 C 312.207031 367.125 306.542969 364.011719 302.089844 358.652344 C 300.589844 356.84375 299.070312 354.277344 298.148438 351.996094 C 296.546875 348.023438 294.238281 339.664062 292.503906 331.550781 C 292 329.203125 291.785156 328.21875 291.285156 325.976562 C 290.742188 323.535156 287.972656 309.652344 286.820312 303.570312 C 286.394531 301.324219 286.253906 300.726562 286.15625 300.726562 C 286.113281 300.726562 285.609375 303.09375 285.03125 305.988281 M 291.035156 430.964844 C 289.628906 431.015625 286.46875 431.023438 284.011719 430.988281 L 279.542969 430.917969 L 279.542969 431.191406 C 279.546875 431.511719 280.035156 433.964844 280.667969 436.804688 C 280.917969 437.929688 281.308594 439.773438 281.535156 440.898438 C 281.761719 442.027344 282.253906 444.355469 282.628906 446.074219 C 283 447.792969 283.511719 450.148438 283.761719 451.304688 C 284.011719 452.464844 284.289062 453.71875 284.375 454.09375 C 284.464844 454.46875 284.925781 456.644531 285.402344 458.925781 C 285.875 461.210938 286.339844 463.382812 286.429688 463.757812 C 286.574219 464.359375 286.875 465.75 287.171875 467.171875 C 287.296875 467.777344 288.121094 471.382812 288.515625 473.0625 C 288.6875 473.800781 288.878906 474.402344 288.9375 474.402344 C 289.0625 474.402344 289.050781 474.480469 290.171875 467.171875 C 291.066406 461.320312 291.390625 459.238281 291.664062 457.503906 C 291.824219 456.503906 292.109375 454.636719 292.296875 453.351562 C 292.484375 452.070312 292.738281 450.40625 292.859375 449.65625 C 292.976562 448.90625 293.207031 447.421875 293.371094 446.359375 C 293.53125 445.296875 293.785156 443.632812 293.933594 442.664062 C 294.085938 441.691406 294.265625 440.492188 294.335938 439.988281 C 294.40625 439.488281 294.644531 437.980469 294.867188 436.636719 C 295.375 433.523438 295.691406 431.164062 295.621094 430.980469 C 295.558594 430.816406 295.171875 430.816406 291.035156 430.964844 " fill-opacity="1" fill-rule="evenodd"/><path fill="#ff6b35" d="M 241.425781 358.523438 C 234.265625 360.046875 231.078125 360.828125 227.085938 362.027344 C 225.867188 362.394531 224.382812 362.832031 223.789062 362.996094 C 221.773438 363.558594 215.585938 365.902344 212.46875 367.285156 C 205.269531 370.472656 199.65625 373.933594 195.78125 377.570312 C 193.308594 379.890625 192.046875 381.382812 190.792969 383.457031 C 188.871094 386.636719 187.894531 390.617188 188.277344 393.714844 C 188.664062 396.867188 189.976562 400 192.128906 402.894531 C 193.148438 404.269531 196.421875 407.582031 197.96875 408.800781 C 203.1875 412.925781 209.277344 416.285156 217.527344 419.59375 C 219.050781 420.207031 222.332031 421.410156 222.988281 421.597656 C 223.210938 421.660156 224.4375 422.046875 225.722656 422.453125 C 229.539062 423.671875 231.117188 424.105469 236.304688 425.363281 C 239.765625 426.203125 242.078125 426.710938 244.097656 427.070312 C 244.785156 427.195312 246.042969 427.421875 246.886719 427.578125 C 254.703125 429.027344 264.261719 430.089844 274.140625 430.609375 C 278.71875 430.851562 295.800781 430.78125 300.878906 430.5 C 304.535156 430.296875 310.226562 429.785156 313.566406 429.359375 C 320.332031 428.496094 323.265625 428.027344 330.066406 426.722656 C 332.28125 426.300781 339.886719 424.425781 342.753906 423.597656 C 348.777344 421.859375 353.761719 420.078125 359.140625 417.746094 C 361.117188 416.886719 365.792969 414.511719 367.449219 413.519531 C 371.011719 411.390625 374.207031 409.078125 376.152344 407.222656 C 379.605469 403.925781 380.894531 402.269531 382.417969 399.160156 C 384.46875 394.988281 384.621094 390.820312 382.894531 386.308594 C 381.882812 383.664062 380.308594 381.347656 377.832031 378.859375 C 373.25 374.257812 368.425781 371.183594 359.199219 366.996094 C 357.414062 366.1875 351.574219 363.988281 349.527344 363.355469 C 345.882812 362.230469 343.085938 361.398438 341.957031 361.105469 C 340.546875 360.738281 336.28125 359.714844 334.902344 359.410156 C 334.402344 359.296875 333.507812 359.097656 332.910156 358.964844 C 330.789062 358.488281 329.691406 358.332031 329.960938 358.539062 C 329.988281 358.558594 331.238281 358.894531 332.742188 359.289062 C 335.632812 360.039062 344.097656 362.804688 346.113281 363.652344 C 350.78125 365.621094 353.019531 366.679688 355.554688 368.121094 C 358.964844 370.050781 360.726562 371.269531 363.472656 373.582031 C 366.261719 375.929688 368.296875 378.703125 369.539062 381.84375 C 370.214844 383.554688 370.460938 385.523438 370.242188 387.527344 C 370.09375 388.9375 369.929688 389.539062 369.296875 391.011719 C 368.222656 393.511719 366.980469 395.320312 364.953125 397.34375 C 362.230469 400.054688 360.195312 401.585938 356.296875 403.847656 C 351.28125 406.761719 343.199219 410.003906 335.699219 412.109375 C 331.410156 413.3125 324.195312 414.960938 320.738281 415.527344 C 320.140625 415.621094 318.863281 415.832031 317.890625 415.992188 C 310.039062 417.289062 302.394531 418.007812 293.140625 418.324219 C 281.511719 418.726562 267.453125 417.96875 257.011719 416.382812 C 252.347656 415.675781 248.417969 414.984375 246.375 414.515625 C 245.6875 414.355469 244.660156 414.121094 244.097656 413.996094 C 237.246094 412.445312 231.011719 410.546875 224.957031 408.15625 C 220.46875 406.382812 215.695312 403.851562 212.117188 401.351562 C 207.953125 398.4375 205.101562 395.414062 203.492188 392.207031 C 202.898438 391.015625 202.203125 388.839844 202.046875 387.671875 C 201.875 386.402344 201.980469 384.472656 202.28125 383.300781 C 202.847656 381.078125 204.464844 378.148438 206.183594 376.21875 C 210.101562 371.820312 215.796875 368.113281 224.128906 364.53125 C 227.570312 363.050781 228.609375 362.664062 232.605469 361.367188 C 236.667969 360.050781 238.191406 359.601562 240.570312 359.007812 C 242.203125 358.601562 242.820312 358.375 242.214844 358.402344 C 242.0625 358.40625 241.707031 358.460938 241.425781 358.523438 " fill-opacity="1" fill-rule="evenodd"/><g fill="#273444" fill-opacity="1"><g transform="translate(399.067721, 429.941982)"><g><path d="M 15.3125 0 C 13.351562 0 11.726562 -0.660156 10.4375 -1.984375 C 9.15625 -3.304688 8.515625 -4.953125 8.515625 -6.921875 L 8.515625 -77.046875 C 8.515625 -79.015625 9.15625 -80.660156 10.4375 -81.984375 C 11.726562 -83.304688 13.351562 -83.96875 15.3125 -83.96875 C 17.28125 -83.96875 18.90625 -83.304688 20.1875 -81.984375 C 21.476562 -80.660156 22.125 -79.015625 22.125 -77.046875 L 22.125 -6.921875 C 22.125 -4.953125 21.476562 -3.304688 20.1875 -1.984375 C 18.90625 -0.660156 17.28125 0 15.3125 0 Z M 51.40625 -60.703125 C 53.144531 -60.703125 54.65625 -59.984375 55.9375 -58.546875 C 57.226562 -57.109375 57.875 -55.707031 57.875 -54.34375 C 57.875 -52.53125 56.960938 -50.832031 55.140625 -49.25 L 20.984375 -17.8125 L 20.421875 -33.46875 L 46.40625 -58.546875 C 47.84375 -59.984375 49.507812 -60.703125 51.40625 -60.703125 Z M 53.109375 -0.109375 C 51.140625 -0.109375 49.472656 -0.867188 48.109375 -2.390625 L 27.125 -24.625 L 37.4375 -34.15625 L 57.875 -11.921875 C 59.3125 -10.398438 60.03125 -8.695312 60.03125 -6.8125 C 60.03125 -4.84375 59.253906 -3.234375 57.703125 -1.984375 C 56.148438 -0.734375 54.617188 -0.109375 53.109375 -0.109375 Z M 53.109375 -0.109375 "/></g></g></g><g fill="#273444" fill-opacity="1"><g transform="translate(461.130744, 429.941982)"><g><path d="M 66.265625 -30.296875 C 66.265625 -24.085938 64.882812 -18.617188 62.125 -13.890625 C 59.363281 -9.171875 55.65625 -5.484375 51 -2.828125 C 46.351562 -0.179688 41.15625 1.140625 35.40625 1.140625 C 29.65625 1.140625 24.453125 -0.179688 19.796875 -2.828125 C 15.148438 -5.484375 11.441406 -9.171875 8.671875 -13.890625 C 5.910156 -18.617188 4.53125 -24.085938 4.53125 -30.296875 C 4.53125 -36.492188 5.910156 -41.957031 8.671875 -46.6875 C 11.441406 -51.414062 15.148438 -55.125 19.796875 -57.8125 C 24.453125 -60.5 29.65625 -61.84375 35.40625 -61.84375 C 41.15625 -61.84375 46.351562 -60.5 51 -57.8125 C 55.65625 -55.125 59.363281 -51.414062 62.125 -46.6875 C 64.882812 -41.957031 66.265625 -36.492188 66.265625 -30.296875 Z M 52.65625 -30.296875 C 52.65625 -34.148438 51.878906 -37.492188 50.328125 -40.328125 C 48.773438 -43.171875 46.691406 -45.382812 44.078125 -46.96875 C 41.472656 -48.5625 38.582031 -49.359375 35.40625 -49.359375 C 32.226562 -49.359375 29.332031 -48.5625 26.71875 -46.96875 C 24.113281 -45.382812 22.035156 -43.171875 20.484375 -40.328125 C 18.929688 -37.492188 18.15625 -34.148438 18.15625 -30.296875 C 18.15625 -26.515625 18.929688 -23.203125 20.484375 -20.359375 C 22.035156 -17.523438 24.113281 -15.3125 26.71875 -13.71875 C 29.332031 -12.132812 32.226562 -11.34375 35.40625 -11.34375 C 38.582031 -11.34375 41.472656 -12.132812 44.078125 -13.71875 C 46.691406 -15.3125 48.773438 -17.523438 50.328125 -20.359375 C 51.878906 -23.203125 52.65625 -26.515625 52.65625 -30.296875 Z M 52.65625 -30.296875 "/></g></g></g><g fill="#273444" fill-opacity="1"><g transform="translate(530.795746, 429.941982)"><g><path d="M 46.0625 -12.484375 C 47.882812 -12.484375 49.398438 -11.894531 50.609375 -10.71875 C 51.816406 -9.550781 52.421875 -8.054688 52.421875 -6.234375 C 52.421875 -4.492188 51.816406 -3.019531 50.609375 -1.8125 C 49.398438 -0.601562 47.882812 0 46.0625 0 L 9.53125 0 C 7.632812 0 6.117188 -0.675781 4.984375 -2.03125 C 3.859375 -3.394531 3.332031 -4.757812 3.40625 -6.125 C 3.476562 -7.257812 3.628906 -8.257812 3.859375 -9.125 C 4.085938 -10 4.65625 -11.003906 5.5625 -12.140625 L 33.8125 -48.671875 L 33.59375 -47.09375 L 10.546875 -47.09375 C 8.734375 -47.09375 7.222656 -47.695312 6.015625 -48.90625 C 4.804688 -50.113281 4.203125 -51.625 4.203125 -53.4375 C 4.203125 -55.175781 4.804688 -56.632812 6.015625 -57.8125 C 7.222656 -58.988281 8.734375 -59.578125 10.546875 -59.578125 L 45.5 -59.578125 C 47.238281 -59.578125 48.710938 -58.929688 49.921875 -57.640625 C 51.128906 -56.359375 51.660156 -54.734375 51.515625 -52.765625 C 51.441406 -52.003906 51.304688 -51.242188 51.109375 -50.484375 C 50.921875 -49.734375 50.410156 -48.828125 49.578125 -47.765625 L 21.78125 -11.796875 L 21.78125 -12.484375 Z M 46.0625 -12.484375 "/></g></g></g><g fill="#273444" fill-opacity="1"><g transform="translate(585.710881, 429.941982)"><g><path d="M 39.265625 -61.84375 C 45.316406 -61.84375 49.78125 -60.382812 52.65625 -57.46875 C 55.53125 -54.5625 57.421875 -50.800781 58.328125 -46.1875 L 56.390625 -47.203125 L 57.296875 -49.015625 C 58.203125 -50.753906 59.601562 -52.625 61.5 -54.625 C 63.394531 -56.632812 65.679688 -58.335938 68.359375 -59.734375 C 71.046875 -61.140625 74.054688 -61.84375 77.390625 -61.84375 C 82.835938 -61.84375 86.976562 -60.671875 89.8125 -58.328125 C 92.644531 -55.984375 94.59375 -52.863281 95.65625 -48.96875 C 96.71875 -45.070312 97.25 -40.738281 97.25 -35.96875 L 97.25 -6.921875 C 97.25 -4.953125 96.601562 -3.304688 95.3125 -1.984375 C 94.03125 -0.660156 92.40625 0 90.4375 0 C 88.46875 0 86.835938 -0.660156 85.546875 -1.984375 C 84.265625 -3.304688 83.625 -4.953125 83.625 -6.921875 L 83.625 -35.96875 C 83.625 -38.46875 83.320312 -40.71875 82.71875 -42.71875 C 82.113281 -44.726562 81.015625 -46.335938 79.421875 -47.546875 C 77.835938 -48.753906 75.570312 -49.359375 72.625 -49.359375 C 69.75 -49.359375 67.289062 -48.753906 65.25 -47.546875 C 63.207031 -46.335938 61.671875 -44.726562 60.640625 -42.71875 C 59.617188 -40.71875 59.109375 -38.46875 59.109375 -35.96875 L 59.109375 -6.921875 C 59.109375 -4.953125 58.46875 -3.304688 57.1875 -1.984375 C 55.90625 -0.660156 54.28125 0 52.3125 0 C 50.34375 0 48.710938 -0.660156 47.421875 -1.984375 C 46.140625 -3.304688 45.5 -4.953125 45.5 -6.921875 L 45.5 -35.96875 C 45.5 -38.46875 45.195312 -40.71875 44.59375 -42.71875 C 43.988281 -44.726562 42.890625 -46.335938 41.296875 -47.546875 C 39.710938 -48.753906 37.445312 -49.359375 34.5 -49.359375 C 31.625 -49.359375 29.164062 -48.753906 27.125 -47.546875 C 25.082031 -46.335938 23.546875 -44.726562 22.515625 -42.71875 C 21.492188 -40.71875 20.984375 -38.46875 20.984375 -35.96875 L 20.984375 -6.921875 C 20.984375 -4.953125 20.34375 -3.304688 19.0625 -1.984375 C 17.78125 -0.660156 16.15625 0 14.1875 0 C 12.21875 0 10.585938 -0.660156 9.296875 -1.984375 C 8.015625 -3.304688 7.375 -4.953125 7.375 -6.921875 L 7.375 -53.78125 C 7.375 -55.75 8.015625 -57.394531 9.296875 -58.71875 C 10.585938 -60.039062 12.21875 -60.703125 14.1875 -60.703125 C 16.15625 -60.703125 17.78125 -60.039062 19.0625 -58.71875 C 20.34375 -57.394531 20.984375 -55.75 20.984375 -53.78125 L 20.984375 -48.90625 L 19.296875 -49.25 C 19.972656 -50.53125 20.914062 -51.90625 22.125 -53.375 C 23.332031 -54.851562 24.804688 -56.234375 26.546875 -57.515625 C 28.285156 -58.804688 30.210938 -59.847656 32.328125 -60.640625 C 34.453125 -61.441406 36.765625 -61.84375 39.265625 -61.84375 Z M 39.265625 -61.84375 "/></g></g></g><g fill="#273444" fill-opacity="1"><g transform="translate(690.321948, 429.941982)"><g><path d="M 66.265625 -30.296875 C 66.265625 -24.085938 64.882812 -18.617188 62.125 -13.890625 C 59.363281 -9.171875 55.65625 -5.484375 51 -2.828125 C 46.351562 -0.179688 41.15625 1.140625 35.40625 1.140625 C 29.65625 1.140625 24.453125 -0.179688 19.796875 -2.828125 C 15.148438 -5.484375 11.441406 -9.171875 8.671875 -13.890625 C 5.910156 -18.617188 4.53125 -24.085938 4.53125 -30.296875 C 4.53125 -36.492188 5.910156 -41.957031 8.671875 -46.6875 C 11.441406 -51.414062 15.148438 -55.125 19.796875 -57.8125 C 24.453125 -60.5 29.65625 -61.84375 35.40625 -61.84375 C 41.15625 -61.84375 46.351562 -60.5 51 -57.8125 C 55.65625 -55.125 59.363281 -51.414062 62.125 -46.6875 C 64.882812 -41.957031 66.265625 -36.492188 66.265625 -30.296875 Z M 52.65625 -30.296875 C 52.65625 -34.148438 51.878906 -37.492188 50.328125 -40.328125 C 48.773438 -43.171875 46.691406 -45.382812 44.078125 -46.96875 C 41.472656 -48.5625 38.582031 -49.359375 35.40625 -49.359375 C 32.226562 -49.359375 29.332031 -48.5625 26.71875 -46.96875 C 24.113281 -45.382812 22.035156 -43.171875 20.484375 -40.328125 C 18.929688 -37.492188 18.15625 -34.148438 18.15625 -30.296875 C 18.15625 -26.515625 18.929688 -23.203125 20.484375 -20.359375 C 22.035156 -17.523438 24.113281 -15.3125 26.71875 -13.71875 C 29.332031 -12.132812 32.226562 -11.34375 35.40625 -11.34375 C 38.582031 -11.34375 41.472656 -12.132812 44.078125 -13.71875 C 46.691406 -15.3125 48.773438 -17.523438 50.328125 -20.359375 C 51.878906 -23.203125 52.65625 -26.515625 52.65625 -30.296875 Z M 52.65625 -30.296875 "/></g></g></g><g fill="#273444" fill-opacity="1"><g transform="translate(761.121596, 429.941982)"><g><path d="M 38.8125 -61.84375 C 44.101562 -61.84375 48.847656 -60.5 53.046875 -57.8125 C 57.242188 -55.125 60.570312 -51.4375 63.03125 -46.75 C 65.488281 -42.0625 66.71875 -36.613281 66.71875 -30.40625 C 66.71875 -24.207031 65.488281 -18.742188 63.03125 -14.015625 C 60.570312 -9.285156 57.28125 -5.578125 53.15625 -2.890625 C 49.03125 -0.203125 44.398438 1.140625 39.265625 1.140625 C 36.234375 1.140625 33.394531 0.648438 30.75 -0.328125 C 28.101562 -1.316406 25.773438 -2.566406 23.765625 -4.078125 C 21.765625 -5.597656 20.210938 -7.128906 19.109375 -8.671875 C 18.015625 -10.222656 17.46875 -11.53125 17.46875 -12.59375 L 20.984375 -14.0625 L 20.984375 15.765625 C 20.984375 17.734375 20.34375 19.378906 19.0625 20.703125 C 17.78125 22.023438 16.15625 22.6875 14.1875 22.6875 C 12.21875 22.6875 10.585938 22.039062 9.296875 20.75 C 8.015625 19.46875 7.375 17.804688 7.375 15.765625 L 7.375 -53.78125 C 7.375 -55.75 8.015625 -57.394531 9.296875 -58.71875 C 10.585938 -60.039062 12.21875 -60.703125 14.1875 -60.703125 C 16.15625 -60.703125 17.78125 -60.039062 19.0625 -58.71875 C 20.34375 -57.394531 20.984375 -55.75 20.984375 -53.78125 L 20.984375 -48.21875 L 19.0625 -49.25 C 19.0625 -50.226562 19.585938 -51.414062 20.640625 -52.8125 C 21.703125 -54.21875 23.140625 -55.617188 24.953125 -57.015625 C 26.773438 -58.410156 28.875 -59.5625 31.25 -60.46875 C 33.632812 -61.382812 36.15625 -61.84375 38.8125 -61.84375 Z M 37.109375 -49.359375 C 33.773438 -49.359375 30.859375 -48.523438 28.359375 -46.859375 C 25.867188 -45.191406 23.921875 -42.941406 22.515625 -40.109375 C 21.117188 -37.273438 20.421875 -34.039062 20.421875 -30.40625 C 20.421875 -26.851562 21.117188 -23.617188 22.515625 -20.703125 C 23.921875 -17.796875 25.867188 -15.507812 28.359375 -13.84375 C 30.859375 -12.175781 33.773438 -11.34375 37.109375 -11.34375 C 40.429688 -11.34375 43.320312 -12.175781 45.78125 -13.84375 C 48.238281 -15.507812 50.164062 -17.796875 51.5625 -20.703125 C 52.96875 -23.617188 53.671875 -26.851562 53.671875 -30.40625 C 53.671875 -34.039062 52.96875 -37.273438 51.5625 -40.109375 C 50.164062 -42.941406 48.238281 -45.191406 45.78125 -46.859375 C 43.320312 -48.523438 40.429688 -49.359375 37.109375 -49.359375 Z M 37.109375 -49.359375 "/></g></g></g><g fill="#273444" fill-opacity="1"><g transform="translate(832.375118, 429.941982)"><g><path d="M 57.078125 -61.84375 C 59.046875 -61.84375 60.671875 -61.195312 61.953125 -59.90625 C 63.242188 -58.625 63.890625 -56.960938 63.890625 -54.921875 L 63.890625 -6.921875 C 63.890625 -4.953125 63.242188 -3.304688 61.953125 -1.984375 C 60.671875 -0.660156 59.046875 0 57.078125 0 C 55.109375 0 53.476562 -0.660156 52.1875 -1.984375 C 50.90625 -3.304688 50.265625 -4.953125 50.265625 -6.921875 L 50.265625 -12.484375 L 52.765625 -11.453125 C 52.765625 -10.472656 52.234375 -9.28125 51.171875 -7.875 C 50.109375 -6.476562 48.671875 -5.097656 46.859375 -3.734375 C 45.046875 -2.378906 42.910156 -1.226562 40.453125 -0.28125 C 37.992188 0.664062 35.328125 1.140625 32.453125 1.140625 C 27.234375 1.140625 22.503906 -0.203125 18.265625 -2.890625 C 14.035156 -5.578125 10.6875 -9.285156 8.21875 -14.015625 C 5.757812 -18.742188 4.53125 -24.171875 4.53125 -30.296875 C 4.53125 -36.492188 5.757812 -41.957031 8.21875 -46.6875 C 10.6875 -51.414062 14 -55.125 18.15625 -57.8125 C 22.3125 -60.5 26.925781 -61.84375 32 -61.84375 C 35.25 -61.84375 38.234375 -61.347656 40.953125 -60.359375 C 43.679688 -59.378906 46.046875 -58.128906 48.046875 -56.609375 C 50.054688 -55.097656 51.609375 -53.566406 52.703125 -52.015625 C 53.796875 -50.472656 54.34375 -49.171875 54.34375 -48.109375 L 50.265625 -46.640625 L 50.265625 -54.921875 C 50.265625 -56.890625 50.90625 -58.535156 52.1875 -59.859375 C 53.476562 -61.179688 55.109375 -61.84375 57.078125 -61.84375 Z M 34.15625 -11.34375 C 37.476562 -11.34375 40.390625 -12.175781 42.890625 -13.84375 C 45.390625 -15.507812 47.335938 -17.78125 48.734375 -20.65625 C 50.128906 -23.53125 50.828125 -26.742188 50.828125 -30.296875 C 50.828125 -33.929688 50.128906 -37.179688 48.734375 -40.046875 C 47.335938 -42.921875 45.390625 -45.191406 42.890625 -46.859375 C 40.390625 -48.523438 37.476562 -49.359375 34.15625 -49.359375 C 30.90625 -49.359375 28.03125 -48.523438 25.53125 -46.859375 C 23.03125 -45.191406 21.082031 -42.921875 19.6875 -40.046875 C 18.289062 -37.179688 17.59375 -33.929688 17.59375 -30.296875 C 17.59375 -26.742188 18.289062 -23.53125 19.6875 -20.65625 C 21.082031 -17.78125 23.03125 -15.507812 25.53125 -13.84375 C 28.03125 -12.175781 30.90625 -11.34375 34.15625 -11.34375 Z M 34.15625 -11.34375 "/></g></g></g><g fill="#273444" fill-opacity="1"><g transform="translate(903.628639, 429.941982)"><g><path d="M 8.0625 -59.578125 L 34.953125 -59.578125 C 36.765625 -59.578125 38.273438 -58.96875 39.484375 -57.75 C 40.691406 -56.539062 41.296875 -55.03125 41.296875 -53.21875 C 41.296875 -51.476562 40.691406 -50.019531 39.484375 -48.84375 C 38.273438 -47.675781 36.765625 -47.09375 34.953125 -47.09375 L 8.0625 -47.09375 C 6.238281 -47.09375 4.722656 -47.695312 3.515625 -48.90625 C 2.304688 -50.113281 1.703125 -51.625 1.703125 -53.4375 C 1.703125 -55.175781 2.304688 -56.632812 3.515625 -57.8125 C 4.722656 -58.988281 6.238281 -59.578125 8.0625 -59.578125 Z M 20.203125 -73.75 C 22.160156 -73.75 23.765625 -73.085938 25.015625 -71.765625 C 26.265625 -70.441406 26.890625 -68.796875 26.890625 -66.828125 L 26.890625 -16.34375 C 26.890625 -15.28125 27.097656 -14.40625 27.515625 -13.71875 C 27.929688 -13.039062 28.5 -12.550781 29.21875 -12.25 C 29.9375 -11.945312 30.710938 -11.796875 31.546875 -11.796875 C 32.453125 -11.796875 33.28125 -11.96875 34.03125 -12.3125 C 34.789062 -12.65625 35.664062 -12.828125 36.65625 -12.828125 C 37.707031 -12.828125 38.664062 -12.332031 39.53125 -11.34375 C 40.40625 -10.363281 40.84375 -9.003906 40.84375 -7.265625 C 40.84375 -5.140625 39.6875 -3.394531 37.375 -2.03125 C 35.070312 -0.675781 32.597656 0 29.953125 0 C 28.367188 0 26.609375 -0.128906 24.671875 -0.390625 C 22.742188 -0.660156 20.929688 -1.304688 19.234375 -2.328125 C 17.535156 -3.347656 16.117188 -4.914062 14.984375 -7.03125 C 13.847656 -9.15625 13.28125 -12.066406 13.28125 -15.765625 L 13.28125 -66.828125 C 13.28125 -68.796875 13.941406 -70.441406 15.265625 -71.765625 C 16.585938 -73.085938 18.234375 -73.75 20.203125 -73.75 Z M 20.203125 -73.75 "/></g></g></g><g fill="#273444" fill-opacity="1"><g transform="translate(950.0342, 429.941982)"><g><path d="M 39.265625 -61.84375 C 44.710938 -61.84375 48.851562 -60.671875 51.6875 -58.328125 C 54.519531 -55.984375 56.460938 -52.863281 57.515625 -48.96875 C 58.578125 -45.070312 59.109375 -40.738281 59.109375 -35.96875 L 59.109375 -6.921875 C 59.109375 -4.953125 58.46875 -3.304688 57.1875 -1.984375 C 55.90625 -0.660156 54.28125 0 52.3125 0 C 50.34375 0 48.710938 -0.660156 47.421875 -1.984375 C 46.140625 -3.304688 45.5 -4.953125 45.5 -6.921875 L 45.5 -35.96875 C 45.5 -38.46875 45.195312 -40.71875 44.59375 -42.71875 C 43.988281 -44.726562 42.890625 -46.335938 41.296875 -47.546875 C 39.710938 -48.753906 37.445312 -49.359375 34.5 -49.359375 C 31.625 -49.359375 29.164062 -48.753906 27.125 -47.546875 C 25.082031 -46.335938 23.546875 -44.726562 22.515625 -42.71875 C 21.492188 -40.71875 20.984375 -38.46875 20.984375 -35.96875 L 20.984375 -6.921875 C 20.984375 -4.953125 20.34375 -3.304688 19.0625 -1.984375 C 17.78125 -0.660156 16.15625 0 14.1875 0 C 12.21875 0 10.585938 -0.660156 9.296875 -1.984375 C 8.015625 -3.304688 7.375 -4.953125 7.375 -6.921875 L 7.375 -77.046875 C 7.375 -79.015625 8.015625 -80.660156 9.296875 -81.984375 C 10.585938 -83.304688 12.21875 -83.96875 14.1875 -83.96875 C 16.15625 -83.96875 17.78125 -83.304688 19.0625 -81.984375 C 20.34375 -80.660156 20.984375 -79.015625 20.984375 -77.046875 L 20.984375 -48.90625 L 19.296875 -49.25 C 19.972656 -50.53125 20.914062 -51.90625 22.125 -53.375 C 23.332031 -54.851562 24.804688 -56.234375 26.546875 -57.515625 C 28.285156 -58.804688 30.210938 -59.847656 32.328125 -60.640625 C 34.453125 -61.441406 36.765625 -61.84375 39.265625 -61.84375 Z M 39.265625 -61.84375 "/></g></g></g></svg>