<svg xmlns="http://www.w3.org/2000/svg" viewBox="207 77.5 1798 1798" version="1.1"><path d="M 1095.225 259.250 C 1090.159 284.688, 1080.803 331.825, 1074.434 364 C 1048.407 495.490, 1023.608 598.970, 1007.383 643.784 C 996.518 673.794, 983.798 698.442, 969.084 718 C 965.567 722.675, 956.797 732.389, 949.595 739.587 C 930.927 758.243, 914.085 770.304, 884.455 786.237 C 851.567 803.920, 833.091 811.497, 744.500 843.627 C 693.798 862.016, 687.961 864.155, 665 872.755 C 652.625 877.390, 641.694 881.423, 640.709 881.718 C 637.064 882.810, 640.004 884.636, 654.314 890.171 C 677.055 898.967, 681.663 900.610, 710 910.037 C 724.575 914.885, 747.975 922.979, 762 928.023 C 776.025 933.068, 791.100 938.442, 795.500 939.967 C 827.163 950.941, 877.907 974.001, 900.141 987.521 C 926.774 1003.717, 951.126 1025.897, 964.941 1046.543 C 973.179 1058.855, 983.641 1079.312, 989.731 1095.016 C 996.197 1111.691, 1004.548 1141.318, 1007.558 1158.261 C 1007.926 1160.330, 1008.545 1162.219, 1008.934 1162.459 C 1009.324 1162.700, 1019.060 1163.694, 1030.571 1164.669 C 1060.485 1167.202, 1156.553 1167.210, 1192.260 1164.682 C 1205.878 1163.718, 1217.634 1162.694, 1218.386 1162.405 C 1219.137 1162.117, 1220.308 1159.095, 1220.987 1155.691 C 1231.450 1103.259, 1253.324 1054.768, 1279.762 1025.399 C 1307.427 994.665, 1347.557 969.358, 1406 945.790 C 1431.404 935.546, 1471.547 920.724, 1511 907.021 C 1536.635 898.118, 1569.992 885.408, 1571.388 884.012 C 1571.972 883.428, 1571.415 882.723, 1569.913 882.143 C 1568.586 881.631, 1562.775 879.316, 1557 876.998 C 1551.225 874.681, 1539.300 870.197, 1530.500 867.034 C 1521.700 863.871, 1505.275 857.886, 1494 853.732 C 1482.725 849.579, 1469.675 844.827, 1465 843.172 C 1334.045 796.806, 1284.268 769.444, 1245.150 722.324 C 1231.934 706.404, 1218.587 683.861, 1210.501 663.800 C 1196.411 628.844, 1176.128 555.351, 1160.879 484 C 1156.472 463.378, 1154.585 454.734, 1150.182 435 C 1145.394 413.539, 1121.086 291.470, 1110.952 238 C 1107.208 218.243, 1105.981 213, 1105.100 213 C 1104.736 213, 1100.292 233.813, 1095.225 259.250 M 1148 1358.140 C 1135.625 1358.583, 1107.838 1358.674, 1086.250 1358.343 L 1047 1357.741 1047.004 1360.121 C 1047.008 1362.950, 1051.318 1384.524, 1056.868 1409.500 C 1059.067 1419.400, 1062.501 1435.600, 1064.498 1445.500 C 1066.495 1455.400, 1070.814 1475.875, 1074.095 1491 C 1077.376 1506.125, 1081.858 1526.825, 1084.055 1537 C 1086.252 1547.175, 1088.689 1558.200, 1089.470 1561.500 C 1090.252 1564.800, 1094.304 1583.925, 1098.475 1604 C 1102.646 1624.075, 1106.710 1643.200, 1107.507 1646.500 C 1108.778 1651.765, 1111.441 1664.003, 1114.036 1676.500 C 1115.142 1681.830, 1122.363 1713.542, 1125.829 1728.296 C 1127.353 1734.783, 1129.028 1740.090, 1129.550 1740.088 C 1130.657 1740.084, 1130.538 1740.783, 1140.388 1676.500 C 1148.274 1625.039, 1151.100 1606.746, 1153.522 1591.500 C 1154.920 1582.700, 1157.417 1566.275, 1159.071 1555 C 1160.726 1543.725, 1162.944 1529.100, 1164.001 1522.500 C 1165.058 1515.900, 1167.081 1502.850, 1168.497 1493.500 C 1169.913 1484.150, 1172.150 1469.525, 1173.468 1461 C 1174.786 1452.475, 1176.375 1441.900, 1176.999 1437.500 C 1177.622 1433.100, 1179.717 1419.825, 1181.654 1408 C 1186.136 1380.633, 1188.896 1359.894, 1188.273 1358.268 C 1187.729 1356.850, 1184.332 1356.840, 1148 1358.140" stroke="none" fill="#60A5FA" fill-rule="evenodd"/><path d="M 712 721.173 C 649.094 734.582, 621.081 741.434, 586 751.992 C 575.275 755.220, 562.228 759.055, 557.007 760.514 C 539.312 765.459, 484.940 786.063, 457.531 798.209 C 394.257 826.249, 344.940 856.669, 310.896 888.657 C 289.168 909.073, 278.069 922.174, 267.054 940.410 C 250.172 968.359, 241.584 1003.377, 244.934 1030.607 C 248.344 1058.330, 259.889 1085.858, 278.789 1111.338 C 287.759 1123.431, 316.513 1152.529, 330.105 1163.268 C 375.986 1199.521, 429.504 1229.068, 502 1258.172 C 515.379 1263.543, 544.230 1274.123, 550 1275.775 C 551.925 1276.326, 562.725 1279.719, 574 1283.316 C 607.555 1294.019, 621.410 1297.829, 667 1308.892 C 697.419 1316.273, 717.756 1320.730, 735.500 1323.904 C 741.550 1324.986, 752.575 1326.998, 760 1328.374 C 828.687 1341.107, 912.693 1350.455, 999.500 1355.028 C 1039.757 1357.148, 1189.877 1356.521, 1234.500 1354.047 C 1266.616 1352.265, 1316.650 1347.768, 1346 1344.025 C 1405.435 1336.444, 1431.239 1332.321, 1491 1320.856 C 1510.455 1317.124, 1577.305 1300.644, 1602.500 1293.369 C 1655.415 1278.091, 1699.228 1262.432, 1746.500 1241.902 C 1763.876 1234.356, 1804.953 1213.457, 1819.500 1204.762 C 1850.838 1186.029, 1878.909 1165.706, 1896.002 1149.376 C 1926.341 1120.390, 1937.668 1105.814, 1951.076 1078.500 C 1969.081 1041.824, 1970.439 1005.148, 1955.259 965.500 C 1946.349 942.227, 1932.521 921.869, 1910.769 900 C 1870.501 859.516, 1828.091 832.500, 1747 795.676 C 1731.325 788.558, 1679.996 769.230, 1662 763.670 C 1629.994 753.781, 1605.394 746.464, 1595.500 743.891 C 1583.082 740.662, 1545.618 731.645, 1533.500 728.970 C 1529.100 727.998, 1521.225 726.244, 1516 725.072 C 1497.328 720.883, 1487.704 719.490, 1490.083 721.321 C 1490.312 721.497, 1501.300 724.456, 1514.500 727.896 C 1539.915 734.519, 1614.316 758.828, 1632 766.286 C 1673.046 783.597, 1692.713 792.902, 1715 805.556 C 1744.939 822.553, 1760.437 833.255, 1784.578 853.598 C 1809.078 874.246, 1826.967 898.624, 1837.883 926.242 C 1843.831 941.289, 1845.975 958.589, 1844.076 976.219 C 1842.742 988.618, 1841.309 993.884, 1835.745 1006.856 C 1826.322 1028.824, 1815.407 1044.738, 1797.565 1062.522 C 1773.669 1086.339, 1755.759 1099.806, 1721.500 1119.717 C 1677.444 1145.323, 1606.412 1173.826, 1540.500 1192.347 C 1502.810 1202.938, 1439.391 1217.426, 1409 1222.387 C 1403.775 1223.240, 1392.529 1225.088, 1384.008 1226.494 C 1314.988 1237.879, 1247.814 1244.215, 1166.500 1247.011 C 1064.304 1250.525, 940.757 1243.878, 849 1229.929 C 808.006 1223.697, 773.455 1217.624, 755.500 1213.495 C 749.450 1212.104, 740.450 1210.050, 735.500 1208.931 C 675.276 1195.317, 620.507 1178.597, 567.289 1157.579 C 527.857 1142.006, 485.877 1119.750, 454.438 1097.750 C 417.853 1072.150, 392.797 1045.567, 378.662 1017.358 C 373.418 1006.892, 367.306 987.733, 365.934 977.464 C 364.447 966.320, 365.356 949.346, 367.993 939.049 C 373.003 919.486, 387.184 893.738, 402.293 876.773 C 436.731 838.102, 486.774 805.488, 560 773.992 C 590.264 760.975, 599.380 757.573, 634.500 746.192 C 670.213 734.618, 683.598 730.650, 704.500 725.444 C 718.861 721.867, 724.253 719.875, 718.950 720.107 C 717.602 720.166, 714.475 720.646, 712 721.173" stroke="none" fill="#FF6B35" fill-rule="evenodd"/></svg>
